<?xml version="1.0" encoding="UTF-8" standalone="no"?>
<!-- Created with Inkscape (http://www.inkscape.org/) -->

<svg
   xmlns:dc="http://purl.org/dc/elements/1.1/"
   xmlns:cc="http://creativecommons.org/ns#"
   xmlns:rdf="http://www.w3.org/1999/02/22-rdf-syntax-ns#"
   xmlns:svg="http://www.w3.org/2000/svg"
   xmlns="http://www.w3.org/2000/svg"
   xmlns:sodipodi="http://sodipodi.sourceforge.net/DTD/sodipodi-0.dtd"
   xmlns:inkscape="http://www.inkscape.org/namespaces/inkscape"
   width="238.95531mm"
   height="50.672562mm"
   viewBox="0 0 846.69204 179.54845"
   id="svg5815"
   version="1.1"
   inkscape:version="0.91 r13725"
   sodipodi:docname="logo2.svg">
  <defs
     id="defs5817" />
  <sodipodi:namedview
     id="base"
     pagecolor="#ffffff"
     bordercolor="#666666"
     borderopacity="1.0"
     inkscape:pageopacity="0.0"
     inkscape:pageshadow="2"
     inkscape:zoom="0.35"
     inkscape:cx="-602.47636"
     inkscape:cy="-183.70753"
     inkscape:document-units="px"
     inkscape:current-layer="layer1"
     showgrid="false"
     fit-margin-top="5"
     fit-margin-left="5"
     fit-margin-right="5"
     fit-margin-bottom="5"
     inkscape:snap-bbox="true"
     inkscape:bbox-paths="true"
     inkscape:bbox-nodes="true"
     inkscape:snap-bbox-edge-midpoints="true"
     inkscape:snap-bbox-midpoints="true"
     inkscape:snap-nodes="true"
     inkscape:snap-others="true"
     inkscape:object-paths="true"
     inkscape:snap-intersection-paths="true"
     inkscape:object-nodes="true"
     inkscape:snap-smooth-nodes="true"
     inkscape:snap-midpoints="true"
     inkscape:window-width="1918"
     inkscape:window-height="1078"
     inkscape:window-x="0"
     inkscape:window-y="0"
     inkscape:window-maximized="0" />
  <metadata
     id="metadata5820">
    <rdf:RDF>
      <cc:Work
         rdf:about="">
        <dc:format>image/svg+xml</dc:format>
        <dc:type
           rdf:resource="http://purl.org/dc/dcmitype/StillImage" />
        <dc:title />
      </cc:Work>
    </rdf:RDF>
  </metadata>
  <g
     inkscape:label="Layer 1"
     inkscape:groupmode="layer"
     id="layer1"
     transform="translate(-263.20555,-223.82359)">
    <path
       d="m 462.1634,293.01137 q 10.9868,0 17.20155,8.60077 6.21476,8.54529 6.21476,23.4718 0,15.37042 -6.43671,23.80473 -6.38122,8.43431 -17.42351,8.43431 -10.93131,0 -17.14606,-7.93491 l -1.16527,0 -2.82993,6.82513 -12.92891,0 0,-86.34069 16.92411,0 0,20.08697 q 0,3.82873 -0.66587,12.26304 l 0.66587,0 q 5.93731,-9.21115 17.58997,-9.21115 z m -5.43791,13.53928 q -6.27024,0 -9.15566,3.88423 -2.88543,3.82873 -2.9964,12.70695 l 0,1.83113 q 0,9.988 2.94091,14.31613 2.9964,4.32813 9.43311,4.32813 5.21595,0 8.26784,-4.77204 3.10738,-4.82753 3.10738,-13.9832 0,-9.15566 -3.10738,-13.70575 -3.10738,-4.60558 -8.4898,-4.60558 z"
       style="font-style:normal;font-variant:normal;font-weight:bold;font-stretch:normal;font-size:113.64122009px;line-height:125%;font-family:'Open Sans';-inkscape-font-specification:'Open Sans Bold';text-align:start;letter-spacing:0px;word-spacing:0px;writing-mode:lr-tb;text-anchor:start;fill:#4d4d4d;fill-opacity:1;stroke:none"
       id="path4143"
       inkscape:connector-curvature="0" />
    <path
       d="m 543.51009,356.2132 -2.27504,-7.93491 -0.88783,0 q -2.71895,4.32813 -7.71295,6.71415 -4.994,2.33054 -11.37522,2.33054 -10.93131,0 -16.4802,-5.82634 -5.54888,-5.88182 -5.54888,-16.86861 l 0,-40.4514 16.9241,0 0,36.23424 q 0,6.71416 2.38603,10.09898 2.38602,3.32933 7.60197,3.32933 7.10258,0 10.26544,-4.71656 3.16287,-4.77204 3.16287,-15.75884 l 0,-29.18715 16.92411,0 0,62.03657 -12.9844,0 z"
       style="font-style:normal;font-variant:normal;font-weight:bold;font-stretch:normal;font-size:113.64122009px;line-height:125%;font-family:'Open Sans';-inkscape-font-specification:'Open Sans Bold';text-align:start;letter-spacing:0px;word-spacing:0px;writing-mode:lr-tb;text-anchor:start;fill:#4d4d4d;fill-opacity:1;stroke:none"
       id="path4145"
       inkscape:connector-curvature="0" />
    <path
       d="m 631.62642,356.2132 -16.9241,0 0,-36.23424 q 0,-6.71415 -2.38602,-10.04348 -2.38603,-3.38483 -7.60198,-3.38483 -7.10258,0 -10.26544,4.77205 -3.16287,4.71655 -3.16287,15.70335 l 0,29.18715 -16.92411,0 0,-62.03657 12.92891,0 2.27505,7.93491 0.94331,0 q 2.82993,-4.4946 7.76844,-6.76964 4.994,-2.33053 11.31973,-2.33053 10.82033,0 16.42471,5.88182 5.60437,5.82633 5.60437,16.86862 l 0,40.45139 z"
       style="font-style:normal;font-variant:normal;font-weight:bold;font-stretch:normal;font-size:113.64122009px;line-height:125%;font-family:'Open Sans';-inkscape-font-specification:'Open Sans Bold';text-align:start;letter-spacing:0px;word-spacing:0px;writing-mode:lr-tb;text-anchor:start;fill:#4d4d4d;fill-opacity:1;stroke:none"
       id="path4147"
       inkscape:connector-curvature="0" />
    <path
       d="m 692.44224,337.79089 q 0,9.54409 -6.65867,14.53809 -6.60317,4.994 -19.80953,4.994 -6.76964,0 -11.54168,-0.94331 -4.77205,-0.88783 -8.93371,-2.66347 l 0,-13.9832 q 4.71655,2.21956 10.59837,3.71776 5.93731,1.4982 10.43191,1.4982 9.21116,0 9.21116,-5.32694 0,-1.99759 -1.22076,-3.21835 -1.22075,-1.27624 -4.21715,-2.82993 -2.9964,-1.60918 -7.9904,-3.71776 -7.15807,-2.9964 -10.54289,-5.54889 -3.32933,-2.55248 -4.88302,-5.82633 -1.4982,-3.32933 -1.4982,-8.15686 0,-8.26785 6.38122,-12.76244 6.43671,-4.55009 18.20035,-4.55009 11.20876,0 21.80713,4.88302 l -5.10497,12.20755 q -4.66107,-1.9976 -8.71176,-3.27384 -4.05069,-1.27625 -8.26784,-1.27625 -7.491,0 -7.491,4.05069 0,2.27505 2.38602,3.93971 2.44151,1.66467 10.59838,4.93851 7.26904,2.94091 10.65386,5.4934 3.38482,2.55249 4.994,5.88182 1.60918,3.32933 1.60918,7.93491 z"
       style="font-style:normal;font-variant:normal;font-weight:bold;font-stretch:normal;font-size:113.64122009px;line-height:125%;font-family:'Open Sans';-inkscape-font-specification:'Open Sans Bold';text-align:start;letter-spacing:0px;word-spacing:0px;writing-mode:lr-tb;text-anchor:start;fill:#4d4d4d;fill-opacity:1;stroke:none"
       id="path4149"
       inkscape:connector-curvature="0" />
    <path
       d="m 731.4509,305.05245 q -5.38242,0 -8.43431,3.44031 -3.05189,3.38483 -3.4958,9.65507 l 23.74924,0 q -0.11098,-6.27024 -3.27385,-9.65507 -3.16286,-3.44031 -8.54528,-3.44031 z m 2.38602,52.27053 q -14.982,0 -23.41631,-8.26785 -8.43431,-8.26784 -8.43431,-23.4163 0,-15.59238 7.76845,-24.08218 7.82393,-8.54528 21.58517,-8.54528 13.15086,0 20.4754,7.491 7.32453,7.49099 7.32453,20.69735 l 0,8.21235 -40.00748,0 q 0.27744,7.21356 4.27264,11.26424 3.9952,4.05069 11.20875,4.05069 5.60438,0 10.59838,-1.16527 4.994,-1.16526 10.43191,-3.71775 l 0,13.09538 q -4.43911,2.21955 -9.4886,3.27384 -5.04949,1.10978 -12.31853,1.10978 z"
       style="font-style:normal;font-variant:normal;font-weight:bold;font-stretch:normal;font-size:113.64122009px;line-height:125%;font-family:'Open Sans';-inkscape-font-specification:'Open Sans Bold';text-align:start;letter-spacing:0px;word-spacing:0px;writing-mode:lr-tb;text-anchor:start;fill:#4d4d4d;fill-opacity:1;stroke:none"
       id="path4151"
       inkscape:connector-curvature="0" />
    <path
       d="m 830.2766,356.2132 -16.92411,0 0,-36.23424 q 0,-6.71415 -2.38602,-10.04348 -2.38602,-3.38483 -7.60197,-3.38483 -7.10258,0 -10.26545,4.77205 -3.16286,4.71655 -3.16286,15.70335 l 0,29.18715 -16.92411,0 0,-62.03657 12.92891,0 2.27504,7.93491 0.94331,0 q 2.82994,-4.4946 7.76845,-6.76964 4.994,-2.33053 11.31973,-2.33053 10.82033,0 16.42471,5.88182 5.60437,5.82633 5.60437,16.86862 l 0,40.45139 z"
       style="font-style:normal;font-variant:normal;font-weight:bold;font-stretch:normal;font-size:113.64122009px;line-height:125%;font-family:'Open Sans';-inkscape-font-specification:'Open Sans Bold';text-align:start;letter-spacing:0px;word-spacing:0px;writing-mode:lr-tb;text-anchor:start;fill:#4d4d4d;fill-opacity:1;stroke:none"
       id="path4153"
       inkscape:connector-curvature="0" />
    <path
       d="m 856.81304,356.2132 -9.21115,0 0,-86.34069 9.21115,0 0,86.34069 z"
       style="font-style:normal;font-variant:normal;font-stretch:normal;font-size:113.64122009px;line-height:125%;font-family:'Open Sans';-inkscape-font-specification:'Open Sans Semi-Light';text-align:start;letter-spacing:0px;word-spacing:0px;writing-mode:lr-tb;text-anchor:start;fill:#666666;fill-opacity:1;stroke:none"
       id="path4156"
       inkscape:connector-curvature="0" />
    <path
       d="m 913.85561,356.2132 -1.83114,-8.65627 -0.44391,0 q -4.55009,5.71536 -9.10017,7.76845 -4.4946,1.9976 -11.26425,1.9976 -9.04468,0 -14.20515,-4.66107 -5.10498,-4.66106 -5.10498,-13.26184 0,-18.42231 29.4646,-19.31013 l 10.32093,-0.33293 0,-3.77325 q 0,-7.15806 -3.10738,-10.54288 -3.05189,-3.44031 -9.82153,-3.44031 -7.60197,0 -17.20155,4.66106 l -2.82993,-7.04709 q 4.4946,-2.44151 9.82153,-3.82873 5.38242,-1.38722 10.76484,-1.38722 10.87582,0 16.09177,4.82753 5.27145,4.82753 5.27145,15.4814 l 0,41.50568 -6.82513,0 z m -20.80833,-6.4922 q 8.60077,0 13.48379,-4.71655 4.93851,-4.71656 4.93851,-13.20636 l 0,-5.4934 -9.21115,0.38843 q -10.9868,0.38842 -15.86982,3.44031 -4.82753,2.9964 -4.82753,9.37762 0,4.994 2.9964,7.60197 3.05189,2.60798 8.4898,2.60798 z"
       style="font-style:normal;font-variant:normal;font-stretch:normal;font-size:113.64122009px;line-height:125%;font-family:'Open Sans';-inkscape-font-specification:'Open Sans Semi-Light';text-align:start;letter-spacing:0px;word-spacing:0px;writing-mode:lr-tb;text-anchor:start;fill:#666666;fill-opacity:1;stroke:none"
       id="path4158"
       inkscape:connector-curvature="0" />
    <path
       d="m 968.01275,294.39859 q 11.9856,0 18.58877,8.21235 6.65867,8.15687 6.65867,23.13887 0,14.98199 -6.71416,23.30532 -6.65866,8.26785 -18.53328,8.26785 -5.93731,0 -10.87582,-2.16407 -4.88302,-2.21955 -8.21236,-6.76964 l -0.66586,0 -1.94211,7.82393 -6.60318,0 0,-86.34069 9.21115,0 0,20.97479 q 0,7.04709 -0.44391,12.65147 l 0.44391,0 q 6.43671,-9.10018 19.08818,-9.10018 z m -1.33173,7.71295 q -9.43311,0 -13.59478,5.43791 -4.16167,5.38242 -4.16167,18.20036 0,12.81793 4.27265,18.36681 4.27264,5.4934 13.70575,5.4934 8.4898,0 12.65146,-6.15926 4.16167,-6.21476 4.16167,-17.81193 0,-11.87462 -4.16167,-17.70095 -4.16166,-5.82634 -12.87341,-5.82634 z"
       style="font-style:normal;font-variant:normal;font-stretch:normal;font-size:113.64122009px;line-height:125%;font-family:'Open Sans';-inkscape-font-specification:'Open Sans Semi-Light';text-align:start;letter-spacing:0px;word-spacing:0px;writing-mode:lr-tb;text-anchor:start;fill:#666666;fill-opacity:1;stroke:none"
       id="path4160"
       inkscape:connector-curvature="0" />
    <path
       d="m 1048.6381,339.62202 q 0,8.4898 -6.3257,13.09538 -6.3258,4.60558 -17.7565,4.60558 -12.0966,0 -18.8662,-3.82874 l 0,-8.54528 q 4.3836,2.21955 9.3776,3.4958 5.0495,1.27624 9.7106,1.27624 7.2135,0 11.0978,-2.27504 3.8842,-2.33054 3.8842,-7.04709 0,-3.55129 -3.1074,-6.04829 -3.0519,-2.55249 -11.9856,-5.9928 -8.4898,-3.16286 -12.0966,-5.4934 -3.5513,-2.38602 -5.3269,-5.38242 -1.7202,-2.9964 -1.7202,-7.15806 0,-7.43551 6.0483,-11.70816 6.0483,-4.32813 16.5912,-4.32813 9.8215,0 19.1991,3.9952 l -3.2738,7.491 q -9.1557,-3.77324 -16.5912,-3.77324 -6.5477,0 -9.877,2.05308 -3.3293,2.05309 -3.3293,5.65987 0,2.44151 1.2207,4.16167 1.2763,1.72015 4.0507,3.27384 2.7745,1.55369 10.6539,4.4946 10.8203,3.93971 14.5936,7.93491 3.8287,3.9952 3.8287,10.04348 z"
       style="font-style:normal;font-variant:normal;font-stretch:normal;font-size:113.64122009px;line-height:125%;font-family:'Open Sans';-inkscape-font-specification:'Open Sans Semi-Light';text-align:start;letter-spacing:0px;word-spacing:0px;writing-mode:lr-tb;text-anchor:start;fill:#666666;fill-opacity:1;stroke:none"
       id="path4162"
       inkscape:connector-curvature="0" />
    <path
       style="display:inline;fill:#4d4d4d;stroke:none;stroke-width:1.64383197;stroke-linecap:round;stroke-linejoin:round;stroke-miterlimit:4;stroke-dasharray:none;stroke-opacity:1"
       d="m 332.51853,342.11056 c -15.3966,-31.58993 -10.0272,-77.06999 27.5443,-100.57043 -1.4774,4.32265 -0.9933,11.53092 1.1066,16.91354 5.7594,13.28455 17.2,24.56312 21.3891,45.99567 5.7986,29.99713 -5.1848,58.65023 -24.7647,81.20617 9.8124,-31.91541 14.7749,-70.84175 -8.7313,-89.96446 -16.4518,14.75632 -17.0769,28.49581 -16.544,46.41951 z"
       id="path3294"
       inkscape:connector-curvature="0"
       sodipodi:nodetypes="ccccccc" />
  </g>
</svg>
